# xmcd CD database file
#
# Track frame offsets:
#	150
#	22940
#	48037
#	71040
#	94967
#	119305
#	141322
#	163382
#	185630
#	209857
#	230980
#	252245
#
# Disc length: 3703 seconds
#
# Revision: 1
# Processed by: cddbd v1.5.1PL0 Copyright (c) Steve Scherf et al.
# Submitted via: CDex 1.51
#
DISCID=bb0e750c
DTITLE=槇原　敬之 - Explorer
DYEAR=1900
DGENRE=JPop
TTITLE0=優しい歌が歌えない
TTITLE1=夏は憶えている
TTITLE2=Tag Team
TTITLE3=武士は食わねど高楊枝
TTITLE4=Happy Ending
TTITLE5=君の名前を呼んだ後に
TTITLE6=とりあえず何か食べよう
TTITLE7=ハトマメ〜Say Hello To The World.〜
TTITLE8=The Fog
TTITLE9=世界に一つだけの花
TTITLE10=Boy, I'm Gonna Try So Hard
TTITLE11=僕が一番欲しかったもの
EXTD=
EXTT0=
EXTT1=
EXTT2=
EXTT3=
EXTT4=
EXTT5=
EXTT6=
EXTT7=
EXTT8=
EXTT9=
EXTT10=
EXTT11=
PLAYORDER=
